<?xml version="1.0" encoding="UTF-8"?>
<!DOCTYPE svg PUBLIC "-//W3C//DTD SVG 1.1//EN" "http://www.w3.org/Graphics/SVG/1.1/DTD/svg11.dtd">
<!-- Creator: CorelDRAW X7 -->
<svg xmlns="http://www.w3.org/2000/svg" xml:space="preserve" width="27.7452mm" height="25.7033mm" version="1.1" style="shape-rendering:geometricPrecision; text-rendering:geometricPrecision; image-rendering:optimizeQuality; fill-rule:evenodd; clip-rule:evenodd"
viewBox="0 0 2079 1926"
 xmlns:xlink="http://www.w3.org/1999/xlink">
 <defs>
  <style type="text/css">
   <![CDATA[
    .str0 {stroke:#FEFEFE;stroke-width:37.4629}
    .str1 {stroke:#FEFEFE;stroke-width:14.9882}
    .str2 {stroke:#373435;stroke-width:19.0275}
    .str3 {stroke:#373435;stroke-width:5.71049}
    .fil2 {fill:#4B4B4D}
    .fil0 {fill:#373435}
    .fil1 {fill:#FEFEFE}
   ]]>
  </style>
 </defs>
 <g id="Layer_x0020_1">
  <metadata id="CorelCorpID_0Corel-Layer"/>
  <g id="_2714081785280">
   <g id="_2604637664448">
    <path class="fil0 str0" d="M872 696l-59 0 -63 0c-9,1 -35,18 -54,35 -20,18 1,56 1,56 0,0 58,76 77,97 18,22 39,18 39,18 0,0 17,4 35,-18 19,-21 75,-97 75,-97 0,0 20,-38 0,-56 -19,-17 -42,-34 -51,-35l0 0z"/>
    <path class="fil0 str0" d="M1586 1082c-27,-34 -288,-264 -294,-327 -7,-62 -52,-276 -57,-300 -6,-24 -44,-305 -410,-312l0 0c0,0 18,0 39,0 0,0 1,0 1,0 -8,0 -13,0 -21,0 -9,0 -18,0 -28,0 -10,0 -19,0 -27,0 -11,0 -19,0 -27,-1 0,0 1,0 1,0 23,1 42,1 42,1l0 0c-347,8 -403,289 -408,312 -5,24 -49,238 -55,300 -6,63 -268,293 -295,327 -27,34 -43,57 -8,84 35,28 114,-22 154,-50 40,-27 71,-21 71,-21l0 -3c-2,78 47,221 68,260l0 0 22 58c-75,24 -125,66 -125,112 0,1 1,4 1,5 -2,8 -3,19 -3,27 0,70 56,126 125,126l309 0c45,0 84,-23 105,-58l101 0c22,35 60,58 105,58l309 0c69,0 125,-56 125,-125 0,-9 -1,-19 -3,-27 0,-1 1,-3 1,-4 0,-45 -50,-86 -125,-110l22 -53 0 0c21,-53 69,-186 69,-266l0 0c0,0 30,-6 70,21 40,28 120,78 154,50 35,-27 19,-50 -8,-84l0 0 0 0zm-347 287c-3,10 -5,21 -9,33 -32,-6 -68,-10 -105,-10 -139,0 -254,48 -275,111 -8,13 -13,28 -13,43 0,14 4,26 9,38l-63 0c6,-12 9,-24 9,-38 0,-12 -2,-23 -7,-33 -11,-68 -131,-121 -277,-121 -37,0 -74,4 -106,10 -3,-12 -6,-23 -8,-33 -13,-88 -43,-422 189,-592 3,-1 6,-3 8,-4l-5 -7 16 -16c-51,-22 -88,-73 -88,-133 0,-79 65,-145 145,-145 59,0 109,36 131,86l26 -26 25 26c22,-50 74,-86 133,-86 79,0 144,66 144,145 0,60 -36,111 -88,133l16 16 -5 7c2,1 5,4 8,4 233,170 202,504 189,592l1 0 0 0z"/>
    <ellipse class="fil0 str0" cx="868" cy="599" rx="32" ry="60"/>
    <ellipse class="fil0 str0" cx="764" cy="599" rx="32" ry="60"/>
   </g>
   <path class="fil1 str1" d="M923 787c0,0 -56,76 -75,97 -18,22 -35,18 -35,18 0,0 -21,4 -39,-18 -19,-21 -77,-97 -77,-97 0,0 -21,-38 -1,-56 19,-17 45,-34 54,-35l63 0 59 0c9,1 32,18 51,35 20,18 0,56 0,56l0 0zm-159 -249c18,0 32,27 32,61 0,32 -14,60 -32,60 -16,0 -30,-28 -30,-60 0,-34 14,-61 30,-61zm135 61c0,32 -14,60 -31,60 -17,0 -31,-28 -31,-60 0,-34 14,-61 31,-61 17,0 31,27 31,61zm339 770c13,-88 44,-422 -189,-592 -3,0 -6,-3 -8,-4l5 -7 -16 -16c52,-22 88,-73 88,-133 0,-79 -65,-145 -144,-145 -59,0 -111,36 -133,86l-25 -26 -26 26c-22,-50 -72,-86 -131,-86 -80,0 -145,66 -145,145 0,60 37,111 88,133l-16 16 5 7c-2,1 -5,3 -8,4 -232,170 -202,504 -189,592 2,10 5,21 8,33 32,-6 69,-10 106,-10 146,0 266,53 277,121 5,10 7,21 7,33 0,14 -3,26 -9,38l63 0c-5,-12 -9,-24 -9,-38 0,-15 5,-30 13,-43 21,-63 136,-111 275,-111 37,0 73,4 105,10 4,-12 6,-23 9,-33l-1 0 0 0z"/>
  </g>
  <g id="_2714081787008">
   <rect class="fil2 str2" x="1265" y="1225" width="446.149" height="54.0816"/>
   <rect class="fil2 str2" x="1265" y="1344" width="446.149" height="54.0816"/>
   <rect class="fil2 str2" x="1265" y="1462" width="446.149" height="54.0816"/>
   <rect class="fil2 str2" x="1265" y="1570" width="277.147" height="54.0816"/>
   <path class="fil2 str2" d="M2054 1455l-159 -217c-1,-1 -19,-16 -37,-13 -9,1 -16,6 -21,15 0,1 -1,2 -1,3l0 410c-23,-17 -52,-27 -83,-27 -81,0 -146,65 -146,145 0,81 65,146 146,146 76,0 138,-59 144,-133 0,-1 0,-1 0,-1l0 -342 103 92c2,8 6,38 -27,65 -1,1 -3,2 -3,4 -1,3 -26,22 7,44 11,7 26,8 47,0 1,-1 2,-1 3,-2 3,-4 74,-99 27,-189z"/>
  </g>
  <g id="_2714081789952">
   <path class="fil2 str3" d="M1429 377c0,-2 1,-5 1,-8 -6,-215 -288,-366 -611,-366 -323,0 -606,151 -612,366 0,3 0,6 0,8 0,22 19,40 47,47l0 54c-28,3 -49,19 -49,39l-2 138c0,22 26,40 59,40l34 0c32,0 59,-17 59,-39l0 -19 34 0 0 86c-1,22 26,40 58,40l34 0c33,0 59,-17 59,-39l3 -275c0,-22 -27,-39 -59,-39 0,0 -15,-1 -15,-1l-4 0c0,0 -15,0 -15,0 -33,0 -59,18 -59,40l-1 86 -33 0 0 -18c0,-20 -22,-36 -51,-39l1 -52c31,-6 53,-24 52,-46 0,-5 0,-5 0,-5 2,-162 227,-272 460,-270 236,-2 457,108 459,270 0,0 -1,0 -1,5 -1,21 20,38 48,45l1 53c-29,3 -51,19 -51,39l0 18 -33 0 0 -86c0,-22 -27,-40 -60,-40 0,0 -15,0 -15,0l-3 0c0,0 -15,1 -15,1 -33,0 -59,17 -59,39l2 275c0,22 27,39 59,39l34 0c33,0 59,-18 59,-40l-1 -86 34 0 0 19c0,22 27,39 60,39l33 0c33,0 59,-18 59,-40l-2 -138c0,-20 -21,-36 -48,-39l-1 -53c30,-7 51,-25 51,-48z"/>
  </g>
 </g>
</svg>
